<?xml version="1.0" encoding="utf-8"?>
<!DOCTYPE svg PUBLIC "-//W3C//DTD SVG 1.1//EN" "http://www.w3.org/Graphics/SVG/1.1/DTD/svg11.dtd">
<svg version="1.1" id="Layer_1" xmlns="http://www.w3.org/2000/svg" xmlns:xlink="http://www.w3.org/1999/xlink" x="0px" y="0px"
	 width="305.928px" height="384.304px" viewBox="0 0 305.928 384.304" enable-background="new 0 0 305.928 384.304"
	 xml:space="preserve">
<path fill-rule="evenodd" clip-rule="evenodd" fill="#A7A7A7" d="M305.928,169.246c-3.489,3.278-7.412,3.874-11.54,1.453
	c-4.611-2.693-9.461-5.13-13.574-8.468c-15.926-12.965-31.452-26.434-47.427-39.351c-9.812-7.935-20.135-15.242-30.299-22.725
	c-0.977-0.716-2.705-1.252-3.745-0.896c-5.698,1.945-11.686,3.053-16.455,7.451c-3.217,2.965-7.827,4.41-11.012,7.391
	c-10.115,9.479-21.044,17.723-33.153,24.505c-5.858,3.277-11.804,4.51-18.398,3.629c-4.242-0.564-8.548-0.78-12.83-0.86
	c-0.864-0.017-2.417,1.2-2.513,1.988c-0.792,6.659-1.304,13.353-1.913,20.088c3.353,0.392,5.442,2.793,5.546,5.966
	c0.08,2.833-1.193,5.702-1.865,8.503c0.424,0.377,1.281,0.953,1.897,1.717c0.881,1.104,1.329,2.796,2.425,3.445
	c4.481,2.645,7.818,6.231,9.667,11.036c2.201,5.71,4.01,11.568,6.21,17.275c1.769,4.602,3.77,9.123,5.882,13.581
	c1.576,3.329,3.585,6.459,5.233,9.765c2.153,4.329,3.986,8.827,6.243,13.101c3.969,7.491,8.21,14.83,12.221,22.297
	c2.201,4.073,3.741,8.57,6.334,12.349c3.889,5.602,8.307,10.836,12.725,16.038c4.93,5.811,10.132,11.38,15.174,17.095
	c1.345,1.512,3.65,3.201,3.569,4.722c-0.128,2.929,1.905,3.594,3.329,5.042c4.322,4.434,8.66,8.867,12.934,13.349
	c0.721,0.744,0.976,1.938,1.729,2.609c4.386,4.018,9.235,7.603,13.222,11.973c4.289,4.729,7.826,10.067,14.357,12.156
	c3.857,1.232,7.555,2.938,11.396,4.218c4.273,1.439,7.57,7.131,6.162,11.333c-0.272,0.8-1.393,1.824-2.146,1.848
	c-3.185,0.104-6.21,2.529-9.555,0.689c-0.625-0.337-1.489-0.305-2.241-0.337c-13.83-0.681-27.643-1.354-41.488-1.983
	c-1.104-0.058-2.305-0.017-3.361,0.312c-8.083,2.567-11.732-0.665-11.396-8.188c0.256-5.482-1.218-9.251-3.97-13.245
	c-0.192-0.272-0.161-0.695-0.257-1.153c1.36-1.455,2.721-2.896,4.514-4.816c-2.161-1.986-3.841-4.626-6.146-5.411
	c-4.305-1.472-6.402-4.729-8.883-7.954c-1.856-2.401-3.841-5.051-6.386-6.482c-8.503-4.771-15.41-11.301-21.932-18.352
	c-0.744-0.809-1.641-1.529-2.185-2.465c-1.353-2.361-2.545-4.826-3.753-7.155c-2.961,1.48-5.37,2.913-7.947,3.945
	c-9.715,3.891-19.576,7.443-29.211,11.509c-14.797,6.227-30.043,10.508-45.953,12.837c-13.262,1.952-23.105,10.828-23.225,25.433
	c-0.041,5.331,0.232,10.669,0.56,15.99c0.36,6.019-3.346,9.412-8.235,7.909c-2.313-5.748-4.545-11.188-6.675-16.663
	c-1.929-4.963-3.929-9.9-5.53-14.966c-1.992-6.267-3.385-12.733-5.45-18.976c-1.921-5.794-4.522-11.364-6.499-17.15
	c-0.384-1.137,0.288-3.313,1.225-4.082c1.92-1.553,4.226-3.025,6.586-3.537c9.452-2.089,18.992-3.794,28.499-5.65
	c6.386-1.232,12.813-2.305,19.136-3.802c3.914-0.92,8.227-1.712,11.38-3.945c8.012-5.69,16.583-9.5,26.275-10.916
	c1.384-0.208,2.705-0.929,4.625-1.616c-2.753-3.362-5.338-6.002-7.315-9.027c-5.426-8.348-11.084-16.607-15.622-25.426
	c-1.713-3.337-3.777-4.291-6.634-5.099c-4.378-1.232-9.284-1.536-13.085-3.745c-8.955-5.201-16.182-12.148-17.103-23.449
	c-0.048-0.633-0.28-1.256-0.497-1.856c-1.088-3.025-2.408-6.036,1.289-8.404c0.448-0.289,0.448-1.393,0.52-2.129
	c0.736-7.471,2.081-14.914-0.536-22.356c-2.145-6.106-4.266-12.261-5.747-18.547c-2.825-12-10.636-22.776-8.499-36.054
	c0.528-3.262-0.616-6.838-1.208-10.236c-2.089-12.049-4.762-24.025-6.227-36.146c-0.912-7.599-1.913-15.669,2.578-22.796
	c2.088-3.306,4.305-6.586,6.898-9.484c3.538-3.93,7.499-7.471,11.261-11.196c0.751-0.744,1.8-1.477,2.057-2.393
	c1.729-6.235,2.657-12.765,5.049-18.711c2.769-6.875,7.587-12.145,15.311-14.373c15.021-4.334,32.276,3.249,39.343,17.274
	c1.281,2.537,2.648,4.714,2.449,7.651c-0.048,0.656,0.768,1.577,1.417,2.045c4.738,3.381,7.699,7.728,7.555,13.87
	c3.874,0.336,7.659,0.184,11.188,1.064c9.908,2.481,19.656,5.546,29.555,8.039c2.913,0.733,6.114,0.24,9.176,0.48
	c1.329,0.104,2.817,0.34,3.889,1.049c2.642,1.757,4.994,3.941,7.62,5.734c6.498,4.45,13.173,8.679,19.624,13.193
	c5.122,3.578,5.666,6.499,2.641,12.009c0.736,0.248,1.425,0.54,2.146,0.712c3.745,0.904,6.386,2.777,7.314,6.882
	c0.368,1.581,1.648,3.366,3.025,4.242c13.669,8.688,27.402,17.283,41.232,25.742c7.17,4.394,14.725,8.188,21.799,12.737
	c12.005,7.73,23.77,15.85,35.631,23.801C305.928,161.574,305.928,165.412,305.928,169.246z M177.223,88.734
	c-2.497-0.508-5.699-1.056-7.075-2.805c-3.745-4.718-6.499-10.212-10.036-15.114c-2.197-3.065-5.766-4.169-9.511-3.805
	c-6.714,0.66-13.461,1.232-20.096,2.4c-7.859,1.376-15.47,0.54-23.097-1.265c-5.618-1.324-11.244-2.513-17.831,0.528
	c2.297,2.044,4.33,3.722,6.21,5.562c1.169,1.132,2.465,2.352,3.05,3.797c0.808,1.953,1.544,3.257,3.977,3.313
	c5.65,0.116,9.988,3.173,13.293,7.347c3.706,4.678,7.091,9.664,10.076,14.822c1.281,2.212,1.241,5.202,1.745,7.851
	c0.4,2.125,0.752,4.182,3.793,3.134c8.676-2.994,17.463-5.699,26.002-9.04c3.845-1.505,7.303-4.118,10.744-6.5
	c3.233-2.236,6.291-4.757,9.316-7.29c1.36-1.141,2.417-2.625,3.617-3.95c-0.272-0.312-0.544-0.62-0.816-0.932
	C179.462,87.49,178.167,88.931,177.223,88.734z"/>
</svg>
