<?xml version="1.0" standalone="no"?>
<!DOCTYPE svg PUBLIC "-//W3C//DTD SVG 20010904//EN"
 "http://www.w3.org/TR/2001/REC-SVG-20010904/DTD/svg10.dtd">
<svg version="1.0" xmlns="http://www.w3.org/2000/svg"
 width="573.000000pt" height="1280.000000pt" viewBox="0 0 573.000000 1280.000000"
 preserveAspectRatio="xMidYMid meet">
<metadata>
Created by potrace 1.15, written by Peter Selinger 2001-2017
</metadata>
<g transform="translate(0.000000,1280.000000) scale(0.100000,-0.100000)"
fill="#000000" stroke="none">
<path d="M3195 12793 c-11 -3 -24 -10 -30 -17 -5 -7 -45 -16 -88 -20 -103 -9
-220 -40 -276 -73 -25 -14 -74 -53 -107 -85 -55 -52 -65 -68 -89 -141 -29 -89
-44 -213 -45 -385 0 -78 3 -104 14 -108 10 -4 12 -14 5 -42 -20 -86 -4 -201
38 -286 22 -43 73 -251 73 -296 0 -19 -151 -100 -186 -100 -38 0 -118 -43
-229 -123 -79 -58 -118 -95 -186 -181 -91 -114 -257 -397 -302 -516 -14 -36
-39 -101 -57 -145 -18 -44 -42 -105 -54 -136 -17 -45 -45 -81 -148 -188 -133
-138 -202 -224 -278 -347 -25 -40 -116 -178 -202 -306 -86 -128 -180 -278
-209 -333 -68 -132 -150 -252 -235 -346 -50 -56 -76 -96 -97 -147 -24 -61 -42
-84 -145 -188 -64 -66 -146 -152 -181 -193 l-64 -73 -19 -117 c-10 -64 -18
-155 -18 -203 0 -80 -2 -91 -30 -130 -27 -40 -29 -51 -36 -170 -7 -126 -6
-127 21 -175 52 -91 70 -100 109 -58 21 23 27 24 50 14 14 -7 28 -20 31 -30
16 -48 72 -65 103 -31 10 10 42 26 73 35 72 22 130 72 158 137 18 42 22 67 20
135 l-3 83 44 59 c24 32 67 86 97 120 44 51 53 68 53 100 0 21 9 58 20 82 12
25 20 63 19 90 -2 74 61 229 127 317 62 82 194 246 228 283 17 18 128 122 246
230 118 109 242 231 275 272 33 41 89 107 124 148 35 40 96 124 137 185 40 61
91 130 112 154 l38 43 65 -31 c35 -16 97 -38 137 -48 63 -16 76 -23 97 -55 14
-20 25 -42 25 -49 0 -7 23 -78 50 -158 28 -80 50 -146 50 -147 0 -2 -18 -3
-39 -3 -24 0 -69 -13 -113 -34 -66 -30 -78 -40 -123 -105 -27 -39 -58 -73 -67
-77 -12 -3 -18 -16 -18 -33 0 -34 -33 -72 -86 -99 -65 -33 -91 -66 -144 -179
-28 -59 -57 -119 -65 -133 -53 -94 -93 -183 -89 -195 3 -8 -4 -39 -15 -70 -27
-72 -40 -192 -30 -282 9 -86 50 -259 78 -334 12 -30 21 -67 21 -84 0 -31 21
-79 65 -150 14 -22 25 -47 25 -55 1 -20 35 -60 52 -60 8 0 19 -5 25 -11 10
-10 163 -51 180 -48 4 1 11 1 15 0 4 0 -20 -56 -52 -123 -71 -147 -100 -233
-107 -310 -5 -49 -3 -58 10 -58 11 0 18 12 22 38 19 112 97 330 149 416 17 29
31 39 52 42 30 3 77 9 153 19 56 8 133 33 146 48 6 7 22 17 36 24 22 10 34 8
67 -8 34 -17 45 -18 83 -9 72 18 74 18 72 -12 -1 -16 2 -28 7 -28 13 0 21 29
14 55 -4 16 1 34 15 54 11 16 28 57 37 91 14 56 15 91 3 331 l-12 269 26 51
c32 61 33 73 7 66 -16 -4 -20 0 -20 18 0 13 5 27 10 30 6 3 10 19 10 36 0 39
11 37 36 -9 11 -20 52 -92 91 -160 l71 -123 -5 -94 -6 -94 30 -29 c16 -17 50
-35 74 -42 24 -6 62 -21 84 -32 24 -12 54 -19 74 -16 40 4 48 -12 50 -94 1
-41 -2 -47 -21 -50 -37 -5 -45 -48 -20 -99 24 -47 21 -59 -12 -59 -12 0 -29
-6 -37 -12 -21 -18 -74 -103 -98 -160 -11 -27 -25 -48 -31 -48 -21 0 -60 -49
-61 -77 0 -24 -25 -49 -171 -168 -93 -77 -211 -174 -261 -216 -51 -41 -123
-97 -162 -124 -160 -111 -234 -179 -295 -271 -38 -58 -52 -92 -73 -180 -14
-60 -29 -125 -32 -144 -7 -43 25 -185 61 -272 14 -35 39 -101 55 -147 l29 -84
-84 -291 c-81 -279 -116 -427 -116 -486 0 -15 -13 -56 -29 -91 -28 -61 -53
-160 -71 -279 -4 -30 -11 -72 -15 -93 -5 -23 -3 -47 3 -60 6 -12 13 -71 15
-132 3 -72 12 -131 25 -170 13 -41 21 -101 26 -190 3 -71 11 -146 17 -165 6
-19 15 -78 19 -130 4 -52 15 -138 25 -190 9 -52 32 -187 52 -300 19 -113 55
-282 78 -377 24 -94 41 -181 38 -191 -9 -37 15 -152 48 -222 22 -47 30 -78 26
-97 -3 -15 1 -45 8 -67 8 -23 11 -59 8 -90 -4 -40 -1 -61 15 -93 17 -32 20
-51 15 -96 -4 -38 -2 -62 7 -72 10 -12 4 -25 -31 -76 -24 -34 -58 -77 -75 -95
-67 -72 -89 -115 -89 -179 0 -33 3 -72 8 -87 5 -21 4 -28 -6 -28 -7 0 -34 -13
-60 -29 -47 -31 -87 -90 -87 -132 0 -12 -13 -37 -30 -56 -48 -54 -36 -104 30
-118 29 -6 30 -9 30 -61 0 -62 -9 -74 -93 -128 -29 -19 -70 -53 -92 -76 -23
-23 -68 -55 -105 -71 -89 -41 -115 -69 -140 -150 -26 -83 -21 -118 24 -157 27
-23 50 -32 117 -43 150 -24 636 -10 673 20 16 13 298 106 391 130 44 11 127
27 184 35 57 8 114 22 127 31 31 20 31 56 0 110 l-24 41 19 69 c11 39 22 106
26 150 3 44 9 87 13 95 5 8 4 63 0 122 -9 126 -29 173 -73 173 l-27 -1 0 96
c0 52 -4 112 -9 133 -7 29 -6 37 5 37 8 0 20 -11 26 -25 14 -32 33 -32 54 0
14 21 15 31 6 50 -10 23 -5 34 50 113 34 48 75 102 92 121 42 46 114 91 145
91 30 0 142 51 187 85 28 21 33 22 46 8 18 -18 44 -12 83 18 25 21 25 22 9 47
-16 25 -16 26 7 44 118 93 160 145 180 221 12 42 11 47 -16 93 -16 27 -37 56
-46 64 -36 31 -111 126 -125 159 -38 89 -100 177 -221 307 -32 35 -42 54 -42
77 1 18 -6 48 -15 68 -8 20 -13 39 -10 42 3 3 -2 40 -11 81 -17 78 -15 108 7
104 9 -2 12 5 9 22 -3 14 -4 37 -3 53 1 15 3 39 4 55 1 15 -2 230 -7 478 -6
332 -5 509 5 675 l12 224 38 60 c66 105 90 151 90 172 0 47 160 256 493 644
212 247 573 597 655 636 342 161 463 233 563 332 61 62 181 236 234 341 18 36
53 129 79 208 44 135 46 146 36 195 -6 29 -15 83 -20 120 -5 38 -15 87 -21
110 -7 23 -13 74 -13 113 -2 45 -8 81 -18 95 -21 33 -99 249 -93 259 3 4 -2
13 -9 19 -9 8 -17 44 -21 97 -6 69 -5 88 8 102 41 47 117 255 117 321 0 34
-64 77 -237 162 -68 33 -123 66 -123 73 0 7 -22 56 -50 110 -41 80 -50 107
-50 149 0 67 -37 142 -106 210 -44 45 -52 59 -58 102 -3 27 -22 83 -41 125
-19 41 -44 120 -55 175 -19 95 -19 101 -2 112 9 7 30 25 46 40 28 28 28 29 23
118 -3 65 -14 117 -38 190 -26 79 -33 113 -30 162 4 75 -27 150 -83 205 -27
27 -42 52 -53 95 -21 83 -68 165 -125 220 -56 55 -103 132 -112 185 -5 25 -28
65 -68 115 -83 105 -261 287 -317 324 -41 26 -53 30 -112 28 -64 -2 -68 0
-119 40 -30 24 -75 53 -101 67 l-48 24 24 65 c22 57 25 82 25 190 l0 124 35 7
c47 9 145 -10 212 -41 113 -52 110 -33 -20 114 -147 166 -157 180 -157 231 0
117 -56 373 -100 460 -25 48 -91 105 -144 123 -22 8 -59 26 -80 41 -54 36
-127 56 -210 56 -54 0 -78 5 -101 20 -30 20 -42 22 -80 13z m-616 -5422 l30
-59 -29 -4 c-17 -3 -32 -2 -35 0 -6 7 -7 122 0 122 3 0 18 -27 34 -59z"/>
</g>
</svg>
